<svg id="splitsvg" version="1.1" xmlns="http://www.w3.org/2000/svg" xmlns:xlink="http://www.w3.org/1999/xlink" width="1380" height="860"><g id="svgg"><path id="path0" d="M140.310 7.922 C 140.310 8.372,140.717 8.527,141.893 8.527 C 143.912 8.527,143.778 7.611,141.734 7.438 C 140.651 7.346,140.310 7.462,140.310 7.922 M256.848 7.623 C 256.232 8.238,256.690 8.565,258.013 8.454 C 259.885 8.295,260.242 7.364,258.430 7.364 C 257.702 7.364,256.990 7.481,256.848 7.623 M133.581 8.021 C 133.145 8.457,133.315 8.915,133.915 8.915 C 134.234 8.915,134.496 8.751,134.496 8.550 C 134.496 8.061,133.891 7.711,133.581 8.021 M265.686 8.159 C 265.317 8.755,265.822 9.139,266.319 8.642 C 266.598 8.364,266.604 8.147,266.340 7.983 C 266.123 7.849,265.828 7.928,265.686 8.159 M129.457 8.721 C 129.457 9.041,129.714 9.302,130.027 9.302 C 130.373 9.302,130.509 9.075,130.373 8.721 C 130.250 8.401,129.994 8.140,129.803 8.140 C 129.613 8.140,129.457 8.401,129.457 8.721 M269.626 8.723 C 269.491 9.075,269.628 9.302,269.973 9.302 C 270.600 9.302,270.743 8.697,270.196 8.358 C 270.005 8.240,269.749 8.405,269.626 8.723 M275.194 9.496 C 275.194 9.816,275.368 10.078,275.581 10.078 C 275.795 10.078,275.969 9.816,275.969 9.496 C 275.969 9.176,275.795 8.915,275.581 8.915 C 275.368 8.915,275.194 9.176,275.194 9.496 M276.992 9.884 C 276.856 10.238,276.991 10.465,277.338 10.465 C 277.651 10.465,277.907 10.203,277.907 9.884 C 277.907 9.564,277.751 9.302,277.561 9.302 C 277.370 9.302,277.114 9.564,276.992 9.884 M280.868 10.659 C 280.732 11.013,280.867 11.240,281.214 11.240 C 281.527 11.240,281.783 10.979,281.783 10.659 C 281.783 10.339,281.627 10.078,281.437 10.078 C 281.246 10.078,280.990 10.339,280.868 10.659 M112.016 12.209 C 112.016 12.529,112.298 12.791,112.644 12.791 C 113.159 12.791,113.186 12.685,112.791 12.209 C 112.525 11.890,112.242 11.628,112.162 11.628 C 112.081 11.628,112.016 11.890,112.016 12.209 M298.450 16.646 C 298.450 16.821,298.798 17.055,299.225 17.167 C 299.680 17.286,300.000 17.178,300.000 16.907 C 300.000 16.652,299.651 16.418,299.225 16.386 C 298.798 16.354,298.450 16.470,298.450 16.646 M93.054 19.477 C 93.016 20.315,93.423 20.337,94.403 19.552 C 95.130 18.969,95.128 18.963,94.314 19.355 C 93.692 19.656,93.423 19.636,93.279 19.280 C 93.164 18.996,93.072 19.077,93.054 19.477 M305.039 19.166 C 305.039 19.369,307.170 20.543,307.539 20.543 C 307.656 20.543,307.752 20.339,307.752 20.090 C 307.752 19.842,307.643 19.748,307.509 19.881 C 307.375 20.015,306.765 19.865,306.152 19.548 C 305.540 19.231,305.039 19.060,305.039 19.166 M90.703 21.104 C 90.172 21.397,89.605 21.555,89.443 21.455 C 89.280 21.354,89.147 21.424,89.147 21.610 C 89.147 21.796,88.101 22.536,86.822 23.256 C 85.543 23.975,84.496 24.710,84.496 24.889 C 84.496 25.301,90.246 22.220,91.268 21.260 C 92.169 20.414,92.022 20.374,90.703 21.104 M309.121 21.387 C 309.354 21.975,314.729 24.977,314.729 24.519 C 314.729 24.191,314.472 24.020,311.145 22.136 C 309.920 21.443,309.009 21.106,309.121 21.387 M140.109 23.199 C 140.033 23.274,138.347 23.419,136.362 23.520 C 132.626 23.710,130.309 23.905,127.810 24.241 C 127.011 24.348,125.790 24.509,125.097 24.598 C 124.404 24.687,123.401 24.847,122.868 24.954 C 122.335 25.060,121.207 25.251,120.361 25.378 C 119.515 25.506,117.171 26.029,115.152 26.542 C 113.133 27.055,111.339 27.387,111.167 27.280 C 110.994 27.173,110.853 27.291,110.853 27.542 C 110.853 27.807,110.528 27.912,110.077 27.795 C 109.588 27.667,109.396 27.744,109.556 28.004 C 109.719 28.267,109.515 28.339,108.994 28.203 C 108.544 28.085,108.125 28.140,108.061 28.324 C 107.998 28.509,107.510 28.708,106.977 28.768 C 106.444 28.827,105.767 29.104,105.473 29.383 C 105.179 29.661,104.700 29.798,104.407 29.686 C 104.115 29.573,103.876 29.669,103.876 29.899 C 103.876 30.128,103.614 30.215,103.295 30.092 C 102.975 29.970,102.713 30.017,102.713 30.197 C 102.713 30.532,98.538 32.229,97.912 32.148 C 97.722 32.124,97.461 32.276,97.330 32.486 C 97.200 32.696,96.744 32.929,96.318 33.004 C 95.891 33.078,95.443 33.274,95.320 33.439 C 95.198 33.604,94.762 33.807,94.351 33.889 C 93.941 33.971,92.094 34.826,90.248 35.788 C 88.401 36.750,86.788 37.434,86.662 37.308 C 86.537 37.183,86.434 37.294,86.434 37.555 C 86.434 37.816,86.260 37.922,86.047 37.791 C 85.833 37.659,85.659 37.731,85.659 37.952 C 85.659 38.327,83.471 39.674,83.231 39.446 C 83.171 39.388,82.700 39.734,82.185 40.213 C 81.670 40.693,81.020 41.085,80.741 41.085 C 80.461 41.085,80.233 41.248,80.233 41.447 C 80.233 41.646,79.853 41.929,79.389 42.076 C 78.925 42.223,78.098 42.758,77.552 43.265 C 77.005 43.772,76.339 44.186,76.070 44.186 C 75.801 44.186,75.581 44.360,75.581 44.574 C 75.581 44.787,75.334 44.961,75.032 44.961 C 74.730 44.961,74.425 45.092,74.354 45.252 C 74.185 45.633,71.318 47.773,71.318 47.518 C 71.318 47.410,70.912 47.707,70.415 48.177 C 69.919 48.646,68.759 49.641,67.839 50.388 C 66.918 51.134,65.100 52.742,63.799 53.962 C 62.499 55.182,61.260 56.199,61.047 56.223 C 60.352 56.301,51.285 66.417,46.977 71.923 C 45.435 73.893,39.924 81.894,39.398 82.927 C 39.121 83.470,37.752 85.921,36.355 88.372 C 29.381 100.613,23.720 116.630,21.492 130.426 C 20.736 135.106,20.666 135.317,20.140 134.485 C 19.920 134.137,19.777 134.095,19.773 134.376 C 19.770 134.630,19.942 134.946,20.155 135.078 C 20.923 135.552,20.609 137.597,19.767 137.597 C 19.341 137.597,18.992 137.771,18.992 137.984 C 18.992 138.198,19.254 138.372,19.574 138.372 C 19.961 138.372,20.155 138.760,20.155 139.535 C 20.155 140.174,20.024 140.698,19.864 140.697 C 19.185 140.697,18.784 248.282,19.460 249.117 C 19.671 249.377,19.783 250.467,19.709 251.539 C 19.634 252.612,19.700 253.532,19.854 253.586 C 20.009 253.639,20.183 254.945,20.242 256.489 C 20.301 258.032,20.493 259.297,20.669 259.299 C 20.845 259.301,20.938 259.782,20.877 260.368 C 20.815 260.955,20.869 261.609,20.997 261.822 C 21.125 262.035,21.362 263.169,21.524 264.341 C 22.206 269.266,23.397 274.655,24.776 279.045 C 25.408 281.057,25.821 282.872,25.693 283.078 C 25.559 283.296,25.667 283.326,25.951 283.151 C 26.314 282.926,26.369 283.072,26.163 283.721 C 25.962 284.354,26.015 284.514,26.357 284.302 C 26.698 284.091,26.751 284.250,26.550 284.884 C 26.377 285.431,26.418 285.667,26.662 285.516 C 27.170 285.202,27.564 286.254,27.248 287.079 C 27.092 287.484,27.154 287.629,27.413 287.469 C 27.640 287.329,27.937 287.504,28.073 287.859 C 28.209 288.214,28.097 288.646,27.823 288.820 C 27.470 289.044,27.551 289.139,28.101 289.147 C 28.744 289.157,28.777 289.223,28.295 289.535 C 27.806 289.851,27.829 289.912,28.440 289.917 C 29.043 289.921,29.126 290.124,28.930 291.105 C 28.800 291.755,28.831 292.202,28.999 292.098 C 29.167 291.994,30.911 295.210,32.874 299.243 C 36.409 306.506,39.564 312.085,42.099 315.556 C 42.820 316.544,43.411 317.547,43.411 317.784 C 43.411 318.022,43.548 318.217,43.715 318.217 C 43.882 318.217,44.324 318.734,44.697 319.366 C 45.071 319.998,45.588 320.739,45.847 321.013 C 46.106 321.287,46.928 322.340,47.674 323.352 C 48.421 324.364,49.943 326.195,51.057 327.422 C 52.171 328.648,53.087 329.772,53.092 329.920 C 53.097 330.068,54.060 331.096,55.233 332.205 C 56.405 333.314,57.364 334.436,57.364 334.699 C 57.364 334.961,57.659 335.416,58.020 335.708 C 58.585 336.167,58.632 336.160,58.360 335.659 C 58.187 335.339,59.156 336.153,60.515 337.468 C 64.628 341.448,66.279 342.945,66.279 342.691 C 66.279 342.558,66.722 342.928,67.264 343.512 C 67.805 344.096,68.416 344.574,68.620 344.574 C 68.825 344.574,68.992 344.846,68.992 345.178 C 68.992 345.510,69.123 345.702,69.283 345.603 C 69.443 345.505,71.318 346.715,73.450 348.292 C 75.581 349.869,77.631 351.259,78.004 351.381 C 78.377 351.503,78.682 351.765,78.682 351.964 C 78.682 352.163,78.885 352.326,79.133 352.326 C 79.533 352.326,83.226 354.499,83.721 355.026 C 83.942 355.261,85.048 355.862,90.504 358.708 C 93.749 360.401,95.045 360.994,97.287 361.814 C 97.393 361.853,97.960 362.020,98.547 362.186 C 99.133 362.352,99.612 362.643,99.612 362.833 C 99.612 363.023,99.743 363.150,99.903 363.115 C 100.471 362.990,102.326 363.655,102.326 363.983 C 102.326 364.167,102.587 364.216,102.907 364.094 C 103.227 363.971,103.488 364.058,103.488 364.287 C 103.488 364.517,103.750 364.604,104.070 364.481 C 104.390 364.359,104.651 364.462,104.651 364.710 C 104.651 364.959,104.826 365.054,105.039 364.922 C 105.252 364.791,105.426 364.862,105.426 365.081 C 105.426 365.300,105.688 365.379,106.008 365.256 C 106.328 365.134,106.589 365.221,106.589 365.450 C 106.589 365.680,106.851 365.767,107.171 365.644 C 107.491 365.521,107.752 365.632,107.752 365.891 C 107.752 366.150,108.013 366.262,108.333 366.139 C 108.653 366.016,108.915 366.068,108.915 366.255 C 108.915 366.441,109.264 366.503,109.690 366.391 C 110.116 366.280,110.465 366.340,110.466 366.525 C 110.466 366.709,111.032 366.900,111.723 366.949 C 112.414 366.998,113.032 367.197,113.097 367.392 C 113.162 367.588,113.556 367.658,113.972 367.549 C 114.388 367.440,114.729 367.530,114.729 367.748 C 114.729 367.966,115.105 368.046,115.564 367.926 C 116.077 367.792,116.306 367.859,116.158 368.100 C 116.007 368.343,116.301 368.419,116.930 368.299 C 117.550 368.180,117.852 368.255,117.705 368.492 C 117.567 368.716,117.912 368.872,118.520 368.862 C 119.099 368.852,121.754 369.224,124.419 369.689 C 131.517 370.928,129.713 370.899,200.000 370.899 C 270.235 370.899,268.471 370.927,275.581 369.696 C 278.246 369.234,280.819 368.844,281.298 368.828 C 281.778 368.812,282.171 368.647,282.171 368.463 C 282.171 368.278,282.519 368.218,282.946 368.329 C 283.372 368.441,283.721 368.354,283.721 368.136 C 283.721 367.917,284.070 367.830,284.496 367.942 C 284.922 368.053,285.271 367.966,285.271 367.748 C 285.271 367.530,285.620 367.443,286.047 367.554 C 286.473 367.666,286.822 367.587,286.822 367.379 C 286.822 367.172,287.171 367.113,287.597 367.248 C 288.072 367.399,288.372 367.318,288.372 367.039 C 288.372 366.789,288.634 366.684,288.953 366.807 C 289.273 366.930,289.535 366.841,289.535 366.609 C 289.535 366.378,289.884 366.280,290.311 366.392 C 290.804 366.521,290.992 366.443,290.828 366.177 C 290.665 365.913,290.808 365.851,291.215 366.007 C 291.573 366.144,291.860 366.067,291.860 365.834 C 291.860 365.603,292.209 365.505,292.636 365.616 C 293.062 365.728,293.411 365.678,293.411 365.506 C 293.411 365.087,295.733 364.293,296.169 364.562 C 296.357 364.679,296.512 364.618,296.512 364.426 C 296.512 364.078,299.672 362.877,299.957 363.117 C 300.039 363.187,300.231 363.044,300.383 362.798 C 300.535 362.552,300.903 362.302,301.202 362.242 C 302.305 362.019,303.419 361.525,308.915 358.821 C 312.006 357.300,314.666 356.088,314.826 356.128 C 314.985 356.169,315.116 356.032,315.116 355.824 C 315.116 355.464,317.313 354.133,317.544 354.353 C 317.604 354.410,318.075 354.065,318.590 353.585 C 319.105 353.106,319.742 352.713,320.007 352.713 C 320.271 352.713,320.718 352.495,320.999 352.229 C 321.447 351.806,324.940 349.370,326.696 348.256 C 327.033 348.043,327.486 347.677,327.704 347.444 C 327.922 347.210,328.711 346.607,329.457 346.103 C 330.203 345.599,331.042 344.874,331.320 344.493 C 331.599 344.111,332.037 343.798,332.293 343.798 C 332.549 343.798,332.988 343.433,333.267 342.986 C 333.546 342.538,333.854 342.252,333.951 342.349 C 334.144 342.542,335.234 341.543,341.667 335.277 C 344.012 332.993,346.715 330.140,347.674 328.937 C 348.634 327.734,349.647 326.748,349.926 326.747 C 350.205 326.745,350.324 326.568,350.191 326.352 C 350.058 326.137,350.484 325.426,351.137 324.772 C 351.791 324.119,352.326 323.466,352.326 323.323 C 352.326 323.179,352.777 322.539,353.329 321.899 C 353.880 321.260,354.615 320.257,354.962 319.671 C 355.309 319.084,355.730 318.605,355.898 318.605 C 356.065 318.605,356.202 318.385,356.202 318.116 C 356.202 317.848,356.638 317.157,357.171 316.583 C 357.703 316.008,358.140 315.453,358.140 315.350 C 358.140 315.247,359.211 313.452,360.521 311.361 C 363.184 307.108,368.915 295.858,370.011 292.733 C 370.445 291.495,370.955 290.695,371.312 290.692 C 371.833 290.686,371.833 290.643,371.318 290.310 C 370.834 289.997,370.867 289.928,371.512 289.898 C 371.938 289.878,372.069 289.773,371.802 289.666 C 371.084 289.376,371.215 288.761,371.996 288.754 C 372.576 288.749,372.590 288.693,372.093 288.372 C 371.725 288.134,371.685 287.994,371.984 287.990 C 372.265 287.987,372.356 287.723,372.209 287.340 C 372.054 286.935,372.115 286.790,372.374 286.950 C 372.902 287.276,373.308 286.245,372.984 285.402 C 372.808 284.943,372.880 284.845,373.231 285.062 C 373.602 285.292,373.657 285.150,373.450 284.496 C 373.242 283.843,373.297 283.701,373.668 283.930 C 374.020 284.147,374.091 284.049,373.915 283.591 C 373.779 283.236,373.847 282.946,374.066 282.946 C 374.285 282.946,374.381 282.810,374.279 282.645 C 374.176 282.480,374.672 280.430,375.379 278.091 C 376.617 274.000,378.682 264.032,378.682 262.149 C 378.682 261.649,378.840 261.240,379.033 261.240 C 379.227 261.240,379.294 260.894,379.184 260.471 C 379.073 260.048,379.113 259.394,379.274 259.017 C 379.434 258.641,379.527 257.766,379.481 257.074 C 379.435 256.381,379.543 255.814,379.721 255.814 C 379.899 255.814,379.982 255.029,379.906 254.070 C 379.829 253.110,379.915 252.326,380.097 252.326 C 380.278 252.327,380.367 251.280,380.295 250.001 C 380.204 248.381,380.305 247.674,380.627 247.674 C 380.882 247.674,380.992 247.417,380.871 247.103 C 380.751 246.788,380.625 222.588,380.591 193.324 C 380.557 164.060,380.404 140.460,380.250 140.879 C 380.062 141.389,379.879 140.759,379.696 138.975 C 379.546 137.508,379.577 136.205,379.765 136.080 C 380.255 135.754,380.615 134.109,380.196 134.109 C 380.003 134.109,379.845 134.457,379.845 134.884 C 379.845 135.310,379.657 135.659,379.428 135.659 C 379.199 135.659,379.062 135.179,379.123 134.593 C 379.185 134.006,379.133 133.352,379.008 133.139 C 378.883 132.926,378.659 131.880,378.510 130.814 C 377.512 123.671,374.890 114.355,370.818 103.488 C 369.785 100.732,364.705 89.847,364.306 89.535 C 364.169 89.428,363.703 88.641,363.270 87.786 C 361.850 84.986,358.505 79.732,355.289 75.254 C 353.553 72.836,351.957 70.603,351.744 70.292 C 351.106 69.364,348.112 66.015,343.895 61.516 C 341.710 59.185,339.922 57.112,339.922 56.910 C 339.922 56.708,339.772 56.636,339.588 56.750 C 339.404 56.864,338.637 56.307,337.882 55.513 C 337.128 54.719,335.763 53.459,334.848 52.713 C 333.933 51.967,332.738 50.959,332.193 50.472 C 329.328 47.915,320.796 42.062,315.300 38.882 C 311.280 36.556,306.589 34.099,306.589 34.319 C 306.589 34.425,305.848 34.126,304.942 33.654 C 304.036 33.183,303.036 32.753,302.720 32.699 C 302.404 32.645,302.088 32.426,302.017 32.213 C 301.946 32.001,301.660 31.914,301.382 32.021 C 301.103 32.128,300.591 31.931,300.244 31.584 C 299.897 31.236,299.612 31.043,299.612 31.154 C 299.612 31.264,299.089 31.173,298.450 30.950 C 297.810 30.727,297.287 30.392,297.287 30.207 C 297.287 30.021,297.025 29.970,296.705 30.092 C 296.386 30.215,296.124 30.112,296.124 29.864 C 296.124 29.615,295.978 29.502,295.800 29.612 C 295.372 29.876,292.636 29.027,292.636 28.629 C 292.636 28.459,292.345 28.430,291.991 28.566 C 291.583 28.723,291.440 28.661,291.604 28.397 C 291.768 28.131,291.579 28.053,291.086 28.182 C 290.659 28.294,290.310 28.196,290.310 27.964 C 290.310 27.733,290.048 27.644,289.729 27.767 C 289.409 27.890,289.147 27.787,289.147 27.538 C 289.147 27.289,289.006 27.173,288.833 27.280 C 288.661 27.387,286.867 27.055,284.848 26.542 C 282.829 26.029,280.485 25.506,279.639 25.378 C 278.793 25.251,277.665 25.060,277.132 24.954 C 276.599 24.847,275.552 24.682,274.806 24.586 C 274.060 24.490,272.839 24.326,272.093 24.220 C 270.046 23.931,267.638 23.726,263.566 23.494 C 259.516 23.263,140.329 22.979,140.109 23.199 M316.667 25.895 C 316.667 26.103,316.943 26.380,317.280 26.509 C 317.658 26.654,317.835 26.567,317.741 26.284 C 317.548 25.705,316.667 25.386,316.667 25.895 M81.654 26.227 C 81.183 26.698,81.386 27.111,81.977 26.884 C 82.297 26.762,82.558 26.505,82.558 26.315 C 82.558 25.909,82.024 25.857,81.654 26.227 M79.682 27.738 C 79.348 28.071,78.920 28.248,78.729 28.130 C 78.539 28.012,78.293 28.258,78.184 28.676 C 77.993 29.405,78.046 29.401,79.494 28.574 C 80.323 28.101,81.003 27.582,81.005 27.422 C 81.010 26.934,80.322 27.098,79.682 27.738 M319.022 27.422 C 319.039 27.582,320.478 28.638,322.220 29.769 C 324.777 31.428,325.096 31.564,323.876 30.477 C 323.044 29.735,321.780 28.814,321.066 28.430 C 320.352 28.045,319.767 27.596,319.767 27.431 C 319.767 27.267,319.593 27.132,319.380 27.132 C 319.167 27.132,319.006 27.263,319.022 27.422 M76.453 29.984 C 75.974 30.222,75.581 30.549,75.581 30.712 C 75.581 30.875,75.358 31.008,75.086 31.008 C 74.813 31.008,74.338 31.357,74.031 31.783 C 73.724 32.209,73.268 32.558,73.018 32.558 C 72.768 32.558,72.456 32.838,72.325 33.180 C 72.189 33.535,71.838 33.706,71.508 33.580 C 71.164 33.447,70.930 33.579,70.930 33.905 C 70.930 34.551,69.398 35.716,68.929 35.426 C 68.751 35.316,68.605 35.459,68.605 35.744 C 68.605 36.327,64.232 40.310,63.592 40.310 C 63.364 40.310,63.178 40.541,63.178 40.824 C 63.178 41.489,61.457 43.111,61.115 42.768 C 60.971 42.624,60.853 42.759,60.853 43.067 C 60.853 43.840,56.043 48.543,55.633 48.170 C 55.451 48.004,55.421 48.076,55.566 48.329 C 55.711 48.582,55.521 48.969,55.144 49.189 C 54.766 49.409,54.593 49.594,54.759 49.601 C 54.925 49.607,53.952 50.964,52.597 52.616 C 51.241 54.268,49.362 56.667,48.421 57.946 C 47.480 59.225,46.618 60.359,46.506 60.465 C 46.159 60.795,41.128 68.505,40.252 70.050 C 36.871 76.013,32.209 85.368,31.123 88.372 C 30.402 90.366,32.387 86.723,33.375 84.240 C 34.040 82.569,34.714 81.027,34.873 80.814 C 35.031 80.601,36.169 78.508,37.402 76.163 C 38.634 73.818,39.938 71.463,40.301 70.930 C 40.663 70.397,41.063 69.673,41.189 69.321 C 41.316 68.969,42.080 67.761,42.888 66.637 C 43.695 65.513,44.623 64.114,44.949 63.529 C 45.276 62.944,45.891 61.997,46.318 61.425 C 47.713 59.554,50.170 56.400,50.387 56.202 C 50.504 56.095,50.901 55.533,51.270 54.953 C 53.046 52.162,63.302 41.329,67.248 38.076 C 68.953 36.671,70.523 35.323,70.736 35.082 C 70.950 34.841,72.563 33.549,74.322 32.213 C 76.080 30.876,77.519 29.709,77.519 29.620 C 77.519 29.530,77.476 29.479,77.422 29.505 C 77.369 29.531,76.933 29.747,76.453 29.984 M325.935 32.315 C 326.235 32.682,326.960 33.323,327.546 33.740 L 328.610 34.497 328.166 33.556 C 327.921 33.038,327.646 32.690,327.554 32.782 C 327.463 32.873,326.937 32.656,326.388 32.298 C 325.444 31.684,325.418 31.685,325.935 32.315 M329.070 34.804 C 329.070 34.998,330.112 35.976,331.386 36.977 C 337.948 42.132,353.323 59.441,354.971 63.529 C 355.115 63.886,355.991 65.249,356.917 66.559 C 357.844 67.868,358.605 69.082,358.607 69.257 C 358.610 69.431,358.922 70.010,359.300 70.543 C 360.422 72.123,361.982 75.009,365.374 81.783 C 367.135 85.300,368.582 88.063,368.590 87.922 C 368.632 87.170,363.601 76.997,360.174 70.906 C 355.114 61.912,345.221 49.314,337.233 41.690 C 330.654 35.413,329.070 34.076,329.070 34.804 M368.605 88.472 C 368.605 88.614,370.650 94.240,371.918 97.584 C 372.505 99.133,373.056 100.329,373.142 100.243 C 373.350 100.035,369.049 88.372,368.764 88.372 C 368.676 88.372,368.605 88.417,368.605 88.472 M29.149 93.302 C 27.513 97.983,27.369 98.534,28.311 96.512 C 29.345 94.293,30.709 90.269,30.498 90.059 C 30.410 89.971,29.803 91.430,29.149 93.302 M166.085 93.784 C 173.611 96.148,182.558 105.211,182.558 110.472 C 182.558 110.859,182.700 111.234,182.873 111.305 C 183.046 111.376,184.531 116.905,186.173 123.592 C 191.196 144.044,192.302 145.461,203.295 145.516 C 211.245 145.555,213.212 144.261,220.632 134.109 C 223.203 130.591,226.388 126.405,227.710 124.806 C 232.232 119.337,243.215 105.523,245.057 102.988 C 255.826 88.162,278.714 92.155,282.362 109.496 C 284.186 118.169,283.216 120.485,267.554 144.864 C 263.549 151.099,255.300 163.964,249.225 173.453 C 243.149 182.941,233.179 198.509,227.069 208.046 C 199.965 250.354,180.560 280.684,175.434 288.753 C 162.253 309.498,128.981 302.478,129.929 279.152 C 130.154 273.619,130.810 271.966,135.753 264.480 C 137.985 261.099,141.554 255.630,143.684 252.326 C 145.814 249.021,151.532 240.213,156.392 232.752 C 161.251 225.291,165.300 218.918,165.389 218.590 C 165.478 218.262,163.784 212.768,161.624 206.381 C 153.955 183.705,146.392 160.698,138.057 134.690 C 133.810 121.439,133.721 121.068,133.721 116.648 C 133.721 100.365,150.131 88.773,166.085 93.784 M26.801 99.683 C 25.812 102.794,24.395 108.245,24.537 108.387 C 24.623 108.473,25.175 106.839,25.764 104.756 C 26.353 102.673,26.989 100.461,27.179 99.840 C 27.368 99.219,27.452 98.641,27.366 98.555 C 27.280 98.468,27.025 98.976,26.801 99.683 M373.256 101.352 C 373.256 102.210,375.259 108.979,375.455 108.783 C 375.604 108.634,373.665 101.079,373.408 100.807 C 373.324 100.719,373.256 100.964,373.256 101.352 M376.023 111.240 C 376.023 111.560,376.173 112.171,376.357 112.597 C 376.567 113.086,376.690 113.157,376.690 112.791 C 376.690 112.471,376.540 111.860,376.357 111.434 C 376.147 110.945,376.023 110.874,376.023 111.240 M93.225 157.159 L 95.327 158.503 94.150 159.775 C 79.794 175.290,77.265 208.616,88.780 230.555 C 91.546 235.827,91.535 235.115,88.874 236.292 C 86.266 237.445,86.574 237.677,83.961 232.586 C 72.661 210.567,74.718 176.262,88.384 158.818 C 91.138 155.302,90.607 155.484,93.225 157.159 M315.355 159.210 C 326.550 178.917,325.832 212.874,313.836 231.105 C 309.494 237.704,309.074 237.941,306.028 235.513 L 304.951 234.654 306.909 232.066 C 321.111 213.302,322.554 180.682,310.079 160.407 C 308.586 157.981,308.582 157.998,310.756 157.034 C 313.296 155.907,313.545 156.024,315.355 159.210 M297.274 167.665 C 303.139 181.753,303.412 205.216,297.870 218.798 C 296.164 222.979,294.002 227.132,293.532 227.132 C 293.122 227.132,291.241 226.083,289.570 224.922 C 289.483 224.861,290.299 222.935,291.384 220.642 C 298.724 205.134,299.109 185.715,292.400 169.380 C 291.656 167.568,291.012 165.945,290.969 165.774 C 290.926 165.604,291.851 165.047,293.023 164.537 C 295.553 163.437,295.496 163.395,297.274 167.665 M108.590 167.095 C 110.828 168.531,110.782 167.987,108.971 171.617 C 101.019 187.555,100.852 210.881,108.579 226.067 L 109.319 227.522 107.131 228.490 C 105.927 229.022,104.833 229.457,104.700 229.456 C 103.750 229.453,99.939 217.498,98.770 210.853 C 98.081 206.938,98.082 191.502,98.772 187.597 C 100.092 180.117,102.783 171.780,105.221 167.620 C 106.427 165.563,106.247 165.591,108.590 167.095 M277.669 174.968 C 281.419 186.489,281.506 200.912,277.895 212.185 C 276.481 216.601,276.575 216.525,274.301 215.046 C 272.171 213.660,272.221 213.957,273.432 209.940 C 276.589 199.462,276.512 187.328,273.224 177.400 C 271.812 173.137,271.758 173.502,273.934 172.543 C 276.540 171.393,276.497 171.366,277.669 174.968 M125.739 178.198 C 127.789 179.442,127.801 179.514,126.566 183.380 C 123.403 193.283,123.495 205.419,126.812 215.830 C 127.447 217.821,127.909 219.500,127.840 219.561 C 127.358 219.984,124.340 221.318,123.864 221.318 C 123.461 221.318,122.918 220.141,122.121 217.539 C 118.417 205.437,118.486 192.339,122.318 180.207 C 123.419 176.723,123.363 176.756,125.739 178.198 M256.783 236.634 C 260.419 237.403,265.156 239.731,268.143 242.217 C 270.821 244.446,271.965 246.538,279.282 262.597 C 280.933 266.221,283.406 271.628,284.777 274.612 C 291.398 289.025,291.599 289.662,291.639 296.318 C 291.703 307.085,285.988 312.609,274.806 312.590 C 265.895 312.574,261.291 309.259,244.670 290.891 C 230.919 275.696,230.106 274.038,230.127 261.240 C 230.157 243.549,241.214 233.341,256.783 236.634 M369.811 294.617 C 369.572 295.302,369.444 295.930,369.527 296.013 C 369.610 296.096,369.873 295.603,370.112 294.918 C 370.351 294.233,370.478 293.605,370.395 293.522 C 370.312 293.439,370.049 293.932,369.811 294.617 M30.021 295.266 C 31.990 301.667,45.819 326.698,47.408 326.737 C 47.695 326.743,47.001 325.640,43.574 320.633 C 42.104 318.487,40.404 315.590,39.824 314.244 C 39.572 313.658,39.229 313.178,39.062 313.178 C 38.896 313.178,38.760 313.030,38.760 312.848 C 38.760 312.667,37.800 310.752,36.627 308.593 C 35.453 306.435,33.512 302.441,32.313 299.718 C 30.168 294.848,29.484 293.518,30.021 295.266 M367.275 300.482 C 365.660 304.038,365.323 304.714,362.396 310.271 C 361.273 312.403,360.059 314.583,359.698 315.116 C 359.336 315.649,358.937 316.373,358.811 316.725 C 358.684 317.077,357.920 318.285,357.112 319.409 C 356.305 320.534,355.377 321.932,355.051 322.518 C 354.378 323.724,353.579 324.840,351.357 327.674 C 350.504 328.762,349.293 330.349,348.665 331.202 C 347.025 333.429,344.942 335.798,340.250 340.775 C 337.978 343.184,336.192 345.230,336.281 345.321 C 336.370 345.412,336.675 345.167,336.961 344.777 C 337.246 344.387,337.680 344.192,337.926 344.344 C 338.181 344.501,338.372 344.388,338.372 344.078 C 338.372 343.342,342.999 338.372,343.684 338.372 C 343.985 338.372,344.144 338.229,344.036 338.055 C 343.808 337.687,345.589 335.659,346.140 335.659 C 346.344 335.659,346.468 335.509,346.415 335.326 C 346.361 335.142,347.463 333.529,348.862 331.740 C 350.261 329.952,351.822 327.878,352.331 327.132 C 352.841 326.386,353.356 325.688,353.478 325.581 C 355.855 323.491,369.656 298.209,368.857 297.410 C 368.786 297.339,368.075 298.722,367.275 300.482 M48.030 327.810 C 48.241 328.183,49.457 329.787,50.733 331.374 C 52.009 332.961,52.949 334.427,52.823 334.632 C 52.697 334.836,52.761 334.900,52.965 334.774 C 53.316 334.557,57.705 339.123,57.794 339.799 C 57.856 340.268,62.016 343.976,62.016 343.562 C 62.016 343.367,60.334 341.466,58.280 339.336 C 56.225 337.207,54.088 334.855,53.532 334.109 C 50.144 329.572,46.977 325.946,48.030 327.810 M62.403 343.957 C 62.403 344.133,62.926 344.873,63.566 345.602 C 64.205 346.330,64.729 346.812,64.729 346.671 C 64.729 346.531,64.990 346.634,65.310 346.899 C 66.492 347.880,65.838 347.009,64.147 345.349 C 63.188 344.407,62.403 343.781,62.403 343.957 M332.655 348.108 C 331.109 349.391,329.845 350.614,329.845 350.825 C 329.845 351.346,330.661 350.811,331.523 349.724 C 331.913 349.232,332.349 348.879,332.492 348.940 C 332.635 349.001,333.473 348.305,334.354 347.393 C 336.570 345.101,335.974 345.351,332.655 348.108 M66.939 348.605 C 67.322 349.118,67.699 349.476,67.776 349.402 C 67.907 349.276,71.978 352.543,73.155 353.720 C 73.828 354.393,74.069 354.415,73.806 353.779 C 73.696 353.513,72.816 352.684,71.852 351.938 C 70.072 350.561,69.111 349.779,67.536 348.426 C 66.348 347.406,66.098 347.481,66.939 348.605 M328.264 351.778 C 327.659 352.421,327.532 352.731,327.907 352.648 C 328.535 352.509,329.643 351.219,329.369 350.945 C 329.277 350.853,328.780 351.228,328.264 351.778 M323.643 355.475 C 322.471 356.335,321.251 357.186,320.933 357.366 C 320.615 357.546,320.494 357.833,320.664 358.002 C 320.834 358.172,321.094 358.129,321.242 357.907 C 321.390 357.686,322.515 356.769,323.740 355.872 C 324.966 354.974,325.969 354.157,325.969 354.058 C 325.969 353.776,325.909 353.813,323.643 355.475 M74.689 355.019 C 74.804 355.458,75.104 355.675,75.426 355.552 C 75.796 355.410,75.971 355.634,75.975 356.257 C 75.980 356.969,76.060 357.045,76.340 356.602 C 76.734 355.979,76.292 355.239,75.167 354.637 C 74.619 354.344,74.531 354.414,74.689 355.019 M78.572 357.759 C 78.681 358.176,78.926 358.422,79.117 358.304 C 79.307 358.186,79.736 358.363,80.069 358.696 C 80.709 359.336,81.397 359.500,81.392 359.012 C 81.391 358.852,80.711 358.333,79.881 357.860 C 78.434 357.034,78.381 357.029,78.572 357.759 M318.551 358.902 C 318.047 359.321,317.827 359.670,318.061 359.677 C 318.295 359.684,318.888 359.341,319.380 358.915 C 320.538 357.911,319.755 357.899,318.551 358.902 M82.647 360.150 C 82.840 360.729,83.721 361.048,83.721 360.539 C 83.721 360.331,83.445 360.054,83.107 359.925 C 82.730 359.780,82.552 359.867,82.647 360.150 M315.972 360.520 C 315.270 360.969,314.768 361.409,314.856 361.497 C 315.138 361.779,317.004 360.767,317.215 360.219 C 317.471 359.551,317.494 359.546,315.972 360.520 M85.659 361.996 C 85.659 362.211,86.357 362.743,87.209 363.178 C 89.224 364.206,89.221 363.639,87.206 362.488 C 86.355 362.002,85.659 361.781,85.659 361.996 M89.153 363.843 C 89.150 364.102,89.516 364.511,89.967 364.753 C 90.587 365.084,90.750 365.081,90.636 364.737 C 90.553 364.487,90.334 364.311,90.150 364.345 C 89.966 364.379,89.668 364.174,89.487 363.890 C 89.255 363.523,89.157 363.509,89.153 363.843 M307.222 365.689 C 306.523 366.219,306.525 366.236,307.292 366.178 C 307.728 366.145,307.982 365.950,307.855 365.745 C 307.722 365.529,307.905 365.480,308.290 365.627 C 308.685 365.779,308.859 365.727,308.718 365.499 C 308.404 364.991,308.091 365.031,307.222 365.689 M92.636 366.344 C 92.636 366.592,92.746 366.686,92.880 366.551 C 93.015 366.416,93.495 366.484,93.946 366.702 C 94.744 367.086,94.746 367.080,94.015 366.494 C 93.120 365.777,92.636 365.724,92.636 366.344 M302.713 367.872 C 302.216 368.229,302.227 368.260,302.785 368.082 C 303.144 367.967,303.523 368.081,303.627 368.336 C 303.730 368.590,303.829 368.493,303.845 368.120 C 303.880 367.345,303.547 367.272,302.713 367.872 M299.322 368.861 C 298.556 369.170,298.758 369.725,299.612 369.661 C 300.039 369.629,300.388 369.378,300.388 369.104 C 300.388 368.585,300.144 368.530,299.322 368.861 M125.581 376.985 C 125.581 377.500,125.687 377.527,126.163 377.132 C 126.483 376.866,126.744 376.583,126.744 376.503 C 126.744 376.422,126.483 376.357,126.163 376.357 C 125.843 376.357,125.581 376.640,125.581 376.985 M273.256 376.503 C 273.256 376.583,273.517 376.866,273.837 377.132 C 274.313 377.527,274.419 377.500,274.419 376.985 C 274.419 376.640,274.157 376.357,273.837 376.357 C 273.517 376.357,273.256 376.422,273.256 376.503 M128.295 377.358 C 128.295 378.042,129.129 377.923,129.369 377.204 C 129.453 376.951,129.246 376.744,128.908 376.744 C 128.571 376.744,128.295 377.020,128.295 377.358 M270.617 377.161 C 270.693 377.390,270.922 377.578,271.124 377.578 C 271.327 377.578,271.555 377.390,271.631 377.161 C 271.708 376.932,271.479 376.744,271.124 376.744 C 270.769 376.744,270.541 376.932,270.617 377.161 M131.857 377.548 C 131.934 377.778,132.162 377.965,132.364 377.965 C 132.567 377.965,132.795 377.778,132.871 377.548 C 132.948 377.319,132.720 377.132,132.364 377.132 C 132.009 377.132,131.781 377.319,131.857 377.548 M266.764 377.616 C 266.852 377.883,267.158 378.101,267.442 378.101 C 267.726 378.101,268.031 377.883,268.120 377.616 C 268.216 377.328,267.941 377.132,267.442 377.132 C 266.942 377.132,266.667 377.328,266.764 377.616 M136.434 378.128 C 136.434 378.532,136.717 378.694,137.276 378.612 C 138.517 378.430,138.650 377.519,137.435 377.519 C 136.784 377.519,136.434 377.732,136.434 378.128 M261.712 377.971 C 261.806 378.256,262.281 378.547,262.767 378.618 C 263.369 378.706,263.598 378.582,263.482 378.230 C 263.388 377.946,262.913 377.655,262.426 377.584 C 261.825 377.496,261.596 377.620,261.712 377.971  M -25 0 L -5 0 L -5 20 L -25 20 Z M 405 0 L 425 0 L 425 20 L 405 20 Z" stroke="none" fill="#ec641b" fill-rule="evenodd" transform="translate(30,0)"></path><path id="path1" d="M143.798 7.752 C 144.593 8.265,255.407 8.265,256.202 7.752 C 256.578 7.508,236.801 7.376,200.000 7.376 C 163.199 7.376,143.422 7.508,143.798 7.752 M152.072 93.767 C 143.078 96.208,136.635 102.789,134.493 111.726 C 133.009 117.914,133.242 118.970,142.110 146.265 C 145.860 157.806,150.458 171.957,152.329 177.713 C 154.200 183.469,158.047 194.997,160.877 203.330 L 166.023 218.482 161.366 225.617 C 158.804 229.541,152.293 239.554,146.896 247.868 C 141.500 256.182,135.954 264.707,134.571 266.813 C 125.368 280.834,130.917 295.962,146.748 300.011 C 159.156 303.184,169.203 298.168,177.821 284.496 C 179.501 281.831,186.690 270.581,193.796 259.496 C 200.902 248.411,210.846 232.888,215.892 225.000 C 233.032 198.213,263.266 151.012,270.220 140.184 C 274.029 134.252,277.411 128.845,277.734 128.168 C 278.058 127.492,278.835 126.066,279.462 125.000 C 283.448 118.222,283.441 109.308,279.445 103.081 C 271.576 90.818,253.242 91.427,244.460 104.242 C 243.794 105.213,239.229 110.979,234.315 117.054 C 229.401 123.130,223.325 130.914,220.813 134.353 C 213.018 145.023,208.967 147.225,199.773 145.790 C 191.473 144.495,190.416 142.680,185.076 120.543 C 181.633 106.272,178.533 100.833,171.362 96.484 C 166.080 93.280,158.042 92.148,152.072 93.767 M89.066 158.463 C 75.122 175.718,72.826 210.152,84.151 232.171 C 86.839 237.396,86.401 237.024,88.706 236.032 C 90.941 235.071,91.024 234.881,89.901 233.304 C 77.383 215.724,78.596 179.808,92.322 161.591 C 93.561 159.948,94.574 158.516,94.574 158.409 C 94.574 158.229,91.301 156.200,91.016 156.203 C 90.948 156.204,90.070 157.221,89.066 158.463 M311.143 157.112 C 308.920 158.058,308.932 157.745,310.981 161.340 C 322.933 182.313,320.965 215.420,306.733 232.787 L 305.272 234.570 306.221 235.291 C 309.105 237.480,309.262 237.398,313.019 231.758 C 320.146 221.057,322.656 211.221,322.656 193.992 C 322.656 178.906,321.227 171.837,316.064 161.375 C 313.463 156.105,313.477 156.118,311.143 157.112 M293.035 164.776 C 292.083 165.198,291.253 165.595,291.191 165.656 C 291.129 165.718,291.687 167.084,292.429 168.691 C 299.511 184.018,299.081 206.177,291.407 221.447 C 289.722 224.800,289.738 224.899,292.169 226.265 L 293.684 227.117 295.653 222.958 C 303.239 206.929,303.584 182.603,296.452 166.653 C 295.788 165.168,295.138 163.966,295.006 163.981 C 294.875 163.996,293.988 164.354,293.035 164.776 M104.894 168.895 C 96.920 184.739,96.218 208.046,103.186 225.678 C 104.606 229.271,104.711 229.343,107.048 228.309 L 108.824 227.523 107.320 223.872 C 100.430 207.137,100.986 186.678,108.750 171.260 C 110.358 168.068,110.382 168.522,108.535 167.300 C 106.433 165.908,106.388 165.928,104.894 168.895 M274.128 172.858 C 272.170 173.746,272.217 173.317,273.605 177.673 C 276.909 188.045,276.926 199.910,273.652 210.159 L 272.573 213.534 274.363 214.698 C 276.490 216.082,276.408 216.145,277.657 212.152 C 281.000 201.461,280.982 186.309,277.612 175.731 C 276.382 171.872,276.354 171.849,274.128 172.858 M123.145 178.605 C 119.026 189.029,118.742 205.903,122.489 217.600 L 123.663 221.267 125.591 220.465 C 127.540 219.656,127.837 219.147,127.131 217.829 C 123.163 210.413,122.975 192.554,126.749 181.576 L 127.420 179.625 125.566 178.398 L 123.712 177.171 123.145 178.605 M246.124 237.212 C 235.333 240.115,230.553 247.397,230.477 261.047 C 230.427 270.026,231.278 274.012,234.080 277.928 C 239.220 285.112,259.352 306.432,263.964 309.575 C 272.377 315.309,287.542 311.875,290.515 303.564 C 293.123 296.273,291.799 290.595,283.040 271.512 C 279.224 263.198,274.982 253.953,273.613 250.969 C 268.316 239.419,257.688 234.101,246.124 237.212 M138.760 378.295 C 138.327 378.574,138.551 378.672,139.632 378.676 C 140.431 378.679,141.085 378.508,141.085 378.295 C 141.085 377.801,139.524 377.801,138.760 378.295 M258.915 378.295 C 258.915 378.508,259.569 378.679,260.368 378.676 C 261.449 378.672,261.673 378.574,261.240 378.295 C 260.476 377.801,258.915 377.801,258.915 378.295  M -25 0 L -5 0 L -5 20 L -25 20 Z M 405 0 L 425 0 L 425 20 L 405 20 Z" stroke="none" fill="#fbfbfb" fill-rule="evenodd" transform="translate(490,0)"></path><path id="path2" d="M136.311 7.990 C 136.424 8.285,136.760 8.527,137.057 8.527 C 137.863 8.527,137.709 7.872,136.851 7.647 C 136.327 7.510,136.166 7.613,136.311 7.990 M91.305 20.137 C 90.893 20.286,90.726 20.515,90.936 20.644 C 91.336 20.891,92.552 20.318,92.237 20.031 C 92.136 19.940,91.717 19.987,91.305 20.137 M312.112 22.360 C 312.485 22.458,312.791 22.709,312.791 22.920 C 312.791 23.130,312.984 23.182,313.220 23.036 C 313.743 22.713,312.895 22.085,312.016 22.144 C 311.604 22.172,311.632 22.235,312.112 22.360 M171.609 23.159 C 187.224 23.215,212.776 23.215,228.391 23.159 C 244.007 23.103,231.231 23.057,200.000 23.057 C 168.769 23.057,155.993 23.103,171.609 23.159 M343.903 48.275 C 344.489 48.818,345.252 49.696,345.599 50.225 C 345.945 50.754,346.312 51.104,346.414 51.002 C 346.688 50.728,343.777 47.287,343.271 47.287 C 343.033 47.287,343.317 47.731,343.903 48.275 M282.648 113.953 C 282.648 114.700,282.728 115.005,282.825 114.632 C 282.923 114.259,282.923 113.648,282.825 113.275 C 282.728 112.902,282.648 113.207,282.648 113.953 M380.506 145.757 C 380.628 146.705,380.790 147.553,380.867 147.642 C 381.184 148.006,380.969 145.112,380.641 144.594 C 380.411 144.231,380.364 144.641,380.506 145.757 M301.640 190.310 C 301.640 191.056,301.720 191.361,301.818 190.988 C 301.915 190.615,301.915 190.005,301.818 189.632 C 301.720 189.259,301.640 189.564,301.640 190.310 M301.640 197.674 C 301.640 198.421,301.720 198.726,301.818 198.353 C 301.915 197.980,301.915 197.369,301.818 196.996 C 301.720 196.623,301.640 196.928,301.640 197.674 M380.726 240.310 C 380.726 241.269,380.801 241.662,380.894 241.182 C 380.986 240.703,380.986 239.918,380.894 239.438 C 380.801 238.958,380.726 239.351,380.726 240.310 M291.571 297.093 C 291.575 297.946,291.654 298.249,291.747 297.767 C 291.840 297.285,291.836 296.587,291.739 296.216 C 291.642 295.846,291.566 296.240,291.571 297.093 M250.775 297.481 C 251.498 298.227,252.177 298.837,252.284 298.837 C 252.390 298.837,251.886 298.227,251.163 297.481 C 250.440 296.734,249.761 296.124,249.654 296.124 C 249.548 296.124,250.052 296.734,250.775 297.481 M256.977 303.682 C 257.700 304.428,258.379 305.039,258.485 305.039 C 258.592 305.039,258.088 304.428,257.364 303.682 C 256.641 302.936,255.962 302.326,255.856 302.326 C 255.749 302.326,256.254 302.936,256.977 303.682 M111.130 373.760 C 110.840 374.516,111.798 374.697,112.246 373.971 C 112.410 373.707,112.353 373.628,112.108 373.780 C 111.881 373.921,111.624 373.826,111.538 373.569 C 111.440 373.274,111.289 373.344,111.130 373.760  M -25 0 L -5 0 L -5 20 L -25 20 Z M 405 0 L 425 0 L 425 20 L 405 20 Z" stroke="none" fill="#f4a369" fill-rule="evenodd" transform="translate(950,0)"></path><path id="path3" d="M135.271 8.005 C 135.271 8.292,135.533 8.527,135.853 8.527 C 136.172 8.527,136.434 8.366,136.434 8.168 C 136.434 7.970,136.739 7.734,137.112 7.643 C 137.485 7.552,137.224 7.479,136.531 7.480 C 135.734 7.481,135.271 7.674,135.271 8.005 M262.892 7.632 C 263.268 7.730,263.476 7.972,263.354 8.169 C 263.232 8.366,263.492 8.527,263.931 8.527 C 264.382 8.527,264.729 8.274,264.729 7.946 C 264.729 7.539,264.350 7.378,263.469 7.409 C 262.776 7.434,262.517 7.534,262.892 7.632 M130.620 8.333 C 130.620 8.653,130.863 8.915,131.160 8.915 C 131.457 8.915,131.800 8.653,131.923 8.333 C 132.075 7.938,131.902 7.752,131.383 7.752 C 130.963 7.752,130.620 8.013,130.620 8.333 M268.083 8.350 C 268.337 9.011,269.052 8.930,269.291 8.212 C 269.376 7.957,269.091 7.752,268.649 7.752 C 268.092 7.752,267.922 7.931,268.083 8.350 M127.907 8.721 C 127.907 9.041,128.081 9.302,128.295 9.302 C 128.508 9.302,128.682 9.041,128.682 8.721 C 128.682 8.401,128.508 8.140,128.295 8.140 C 128.081 8.140,127.907 8.401,127.907 8.721 M271.318 8.721 C 271.318 9.041,271.492 9.302,271.705 9.302 C 271.919 9.302,272.093 9.041,272.093 8.721 C 272.093 8.401,271.919 8.140,271.705 8.140 C 271.492 8.140,271.318 8.401,271.318 8.721 M125.194 8.938 C 125.194 9.163,125.021 9.242,124.811 9.111 C 124.594 8.978,124.524 9.126,124.649 9.452 C 124.771 9.769,125.118 9.934,125.420 9.818 C 126.042 9.579,126.174 8.527,125.581 8.527 C 125.368 8.527,125.194 8.712,125.194 8.938 M274.031 9.067 C 274.031 9.364,274.293 9.707,274.612 9.830 C 275.008 9.982,275.194 9.809,275.194 9.290 C 275.194 8.870,274.932 8.527,274.612 8.527 C 274.293 8.527,274.031 8.770,274.031 9.067 M122.868 9.496 C 122.868 9.816,123.043 10.078,123.256 10.078 C 123.469 10.078,123.643 9.816,123.643 9.496 C 123.643 9.176,123.469 8.915,123.256 8.915 C 123.043 8.915,122.868 9.176,122.868 9.496 M117.054 10.659 C 117.054 10.979,117.229 11.240,117.442 11.240 C 117.655 11.240,117.829 10.979,117.829 10.659 C 117.829 10.339,117.655 10.078,117.442 10.078 C 117.229 10.078,117.054 10.339,117.054 10.659 M315.669 24.621 C 316.080 24.932,316.511 25.091,316.627 24.975 C 316.870 24.732,315.886 24.040,315.310 24.049 C 315.097 24.053,315.259 24.310,315.669 24.621 M59.281 44.477 L 57.946 45.930 59.399 44.595 C 60.199 43.860,60.853 43.206,60.853 43.141 C 60.853 42.845,60.525 43.124,59.281 44.477 M341.860 45.898 C 341.860 46.306,343.028 47.411,343.238 47.201 C 343.336 47.104,343.066 46.707,342.638 46.320 C 342.210 45.933,341.860 45.743,341.860 45.898 M341.279 58.527 C 342.112 59.380,342.880 60.078,342.987 60.078 C 343.093 60.078,342.499 59.380,341.667 58.527 C 340.834 57.674,340.066 56.977,339.959 56.977 C 339.852 56.977,340.446 57.674,341.279 58.527 M356.210 64.192 C 356.222 64.644,357.732 66.570,357.743 66.146 C 357.748 65.967,357.403 65.376,356.977 64.834 C 356.550 64.292,356.205 64.003,356.210 64.192 M42.248 65.891 C 41.793 66.531,41.563 67.053,41.737 67.052 C 41.912 67.050,42.351 66.527,42.715 65.889 C 43.564 64.396,43.312 64.397,42.248 65.891 M359.792 69.767 C 360.375 71.269,361.076 72.475,361.369 72.478 C 361.546 72.479,361.298 71.827,360.817 71.027 C 359.813 69.357,359.469 68.934,359.792 69.767 M364.851 79.266 C 365.288 80.217,365.724 80.917,365.820 80.821 C 366.035 80.605,364.826 78.013,364.382 77.738 C 364.202 77.627,364.413 78.315,364.851 79.266 M32.346 84.145 C 32.005 84.804,31.795 85.412,31.879 85.496 C 31.963 85.580,32.322 85.041,32.676 84.297 C 33.473 82.626,33.197 82.498,32.346 84.145 M30.620 87.984 C 30.350 88.638,30.219 89.263,30.329 89.373 C 30.440 89.484,30.726 89.014,30.965 88.329 C 31.529 86.711,31.259 86.442,30.620 87.984 M369.392 89.147 C 369.392 89.467,369.561 89.990,369.767 90.310 C 370.101 90.827,370.143 90.827,370.143 90.310 C 370.143 89.990,369.974 89.467,369.767 89.147 C 369.433 88.630,369.392 88.630,369.392 89.147 M157.655 92.909 C 158.135 93.002,158.920 93.002,159.399 92.909 C 159.879 92.817,159.486 92.741,158.527 92.741 C 157.568 92.741,157.175 92.817,157.655 92.909 M261.725 94.076 C 262.311 94.165,263.270 94.165,263.857 94.076 C 264.443 93.987,263.963 93.915,262.791 93.915 C 261.618 93.915,261.139 93.987,261.725 94.076 M27.616 95.833 C 27.199 96.972,27.210 97.021,27.725 96.341 C 28.218 95.690,28.509 94.574,28.186 94.574 C 28.126 94.574,27.870 95.141,27.616 95.833 M372.528 97.683 C 373.114 99.419,373.445 99.756,373.089 98.256 C 372.937 97.616,372.647 96.923,372.443 96.714 C 372.239 96.506,372.277 96.942,372.528 97.683 M27.132 97.369 C 27.132 97.485,26.868 98.212,26.545 98.984 C 26.223 99.756,26.057 100.388,26.177 100.388 C 26.516 100.388,27.592 97.618,27.348 97.374 C 27.229 97.255,27.132 97.253,27.132 97.369 M276.550 99.612 C 277.383 100.465,278.152 101.163,278.258 101.163 C 278.365 101.163,277.771 100.465,276.938 99.612 C 276.105 98.760,275.337 98.062,275.230 98.062 C 275.124 98.062,275.718 98.760,276.550 99.612 M247.287 100.581 C 246.345 101.541,245.662 102.326,245.769 102.326 C 245.875 102.326,246.733 101.541,247.674 100.581 C 248.616 99.622,249.299 98.837,249.192 98.837 C 249.086 98.837,248.228 99.622,247.287 100.581 M20.155 127.488 C 20.155 127.683,20.049 128.119,19.920 128.457 C 19.790 128.794,19.840 129.070,20.029 129.070 C 20.219 129.070,20.410 128.634,20.454 128.101 C 20.498 127.568,20.449 127.132,20.344 127.132 C 20.240 127.132,20.155 127.292,20.155 127.488 M19.574 131.008 C 19.428 131.466,19.396 131.929,19.503 132.035 C 19.609 132.142,19.816 131.854,19.961 131.395 C 20.107 130.937,20.139 130.475,20.032 130.368 C 19.925 130.261,19.719 130.549,19.574 131.008 M19.174 134.923 C 19.032 135.371,19.107 135.929,19.341 136.163 C 19.651 136.473,19.767 136.250,19.767 135.349 C 19.767 133.917,19.544 133.757,19.174 134.923 M380.238 136.143 C 380.235 136.730,380.407 137.209,380.620 137.209 C 381.110 137.209,381.110 136.417,380.620 135.659 C 380.327 135.206,380.243 135.313,380.238 136.143 M18.998 140.924 C 19.001 141.759,19.183 142.703,19.402 143.023 C 19.684 143.436,19.724 143.043,19.540 141.667 C 19.216 139.247,18.990 138.938,18.998 140.924 M215.673 140.795 L 214.535 142.054 215.795 140.916 C 216.487 140.290,217.054 139.723,217.054 139.656 C 217.054 139.357,216.734 139.620,215.673 140.795 M192.525 142.638 C 193.424 143.575,194.220 144.263,194.294 144.167 C 194.368 144.071,193.633 143.304,192.660 142.463 L 190.891 140.935 192.525 142.638 M380.468 141.698 C 380.120 142.604,380.192 143.913,380.626 144.574 C 380.899 144.989,380.991 144.575,380.946 143.120 C 380.880 140.921,380.827 140.763,380.468 141.698 M323.022 193.798 C 323.022 196.890,323.082 198.154,323.156 196.609 C 323.230 195.063,323.230 192.534,323.156 190.988 C 323.082 189.443,323.022 190.707,323.022 193.798 M318.695 189.922 C 318.695 190.669,318.774 190.974,318.872 190.601 C 318.969 190.228,318.969 189.617,318.872 189.244 C 318.774 188.871,318.695 189.176,318.695 189.922 M297.398 191.667 C 297.401 192.733,297.476 193.123,297.565 192.533 C 297.654 191.944,297.652 191.072,297.560 190.595 C 297.468 190.119,297.395 190.601,297.398 191.667 M301.678 193.992 C 301.679 195.484,301.749 196.047,301.833 195.243 C 301.917 194.439,301.916 193.218,301.830 192.530 C 301.745 191.842,301.676 192.500,301.678 193.992 M276.089 193.992 C 276.091 195.271,276.164 195.748,276.250 195.051 C 276.336 194.355,276.334 193.308,276.246 192.726 C 276.158 192.143,276.087 192.713,276.089 193.992 M76.898 199.225 C 76.898 202.316,76.958 203.580,77.032 202.035 C 77.106 200.489,77.106 197.960,77.032 196.415 C 76.958 194.869,76.898 196.134,76.898 199.225 M297.392 196.124 C 297.392 197.083,297.468 197.476,297.560 196.996 C 297.653 196.516,297.653 195.732,297.560 195.252 C 297.468 194.772,297.392 195.165,297.392 196.124 M102.436 197.093 C 102.439 198.159,102.515 198.549,102.604 197.960 C 102.693 197.371,102.690 196.499,102.598 196.022 C 102.506 195.545,102.434 196.027,102.436 197.093 M98.192 199.225 C 98.192 200.824,98.261 201.478,98.344 200.678 C 98.428 199.879,98.428 198.571,98.344 197.771 C 98.261 196.972,98.192 197.626,98.192 199.225 M123.760 199.225 C 123.760 200.397,123.832 200.877,123.921 200.291 C 124.010 199.704,124.010 198.745,123.921 198.159 C 123.832 197.573,123.760 198.052,123.760 199.225 M102.436 201.357 C 102.439 202.422,102.515 202.813,102.604 202.223 C 102.693 201.634,102.690 200.762,102.598 200.285 C 102.506 199.809,102.434 200.291,102.436 201.357 M380.731 243.605 C 380.734 244.671,380.809 245.061,380.898 244.471 C 380.987 243.882,380.985 243.010,380.893 242.533 C 380.801 242.057,380.728 242.539,380.731 243.605 M19.103 246.318 C 19.106 247.384,19.181 247.774,19.270 247.185 C 19.359 246.595,19.357 245.723,19.265 245.247 C 19.173 244.770,19.100 245.252,19.103 246.318 M380.322 250.388 C 380.322 251.134,380.402 251.439,380.500 251.066 C 380.597 250.693,380.597 250.082,380.500 249.709 C 380.402 249.336,380.322 249.641,380.322 250.388 M19.470 251.550 C 19.470 252.297,19.550 252.602,19.647 252.229 C 19.745 251.856,19.745 251.245,19.647 250.872 C 19.550 250.499,19.470 250.804,19.470 251.550 M376.744 273.418 C 376.744 273.720,376.627 274.272,376.485 274.644 C 376.321 275.070,376.376 275.228,376.632 275.069 C 377.146 274.752,377.527 272.868,377.078 272.868 C 376.894 272.868,376.744 273.116,376.744 273.418 M22.963 274.903 C 23.183 275.809,23.539 276.725,23.754 276.938 C 24.016 277.198,24.070 277.111,23.917 276.675 C 23.792 276.317,23.572 275.401,23.429 274.640 C 23.286 273.879,23.033 273.256,22.866 273.256 C 22.700 273.256,22.743 273.997,22.963 274.903 M373.301 285.918 C 373.276 286.167,373.143 286.690,373.005 287.081 C 372.810 287.632,372.862 287.691,373.235 287.347 C 373.500 287.104,373.633 286.580,373.531 286.185 C 373.429 285.789,373.326 285.669,373.301 285.918 M27.349 289.594 C 27.863 290.905,28.397 292.083,28.536 292.210 C 28.675 292.338,28.689 292.180,28.568 291.860 C 28.447 291.541,28.043 290.363,27.669 289.244 C 27.296 288.125,26.861 287.209,26.702 287.209 C 26.544 287.209,26.835 288.282,27.349 289.594 M372.469 288.781 C 372.235 289.219,372.100 289.750,372.170 289.961 C 372.241 290.171,372.498 289.813,372.743 289.164 C 373.253 287.815,373.100 287.602,372.469 288.781 M369.832 295.717 C 369.606 296.367,369.503 296.899,369.603 296.899 C 369.865 296.899,370.596 294.886,370.404 294.694 C 370.317 294.606,370.059 295.066,369.832 295.717 M29.857 296.124 C 29.857 296.444,30.026 296.967,30.233 297.287 C 30.567 297.804,30.608 297.804,30.608 297.287 C 30.608 296.967,30.439 296.444,30.233 296.124 C 29.899 295.607,29.857 295.607,29.857 296.124 M368.648 298.493 C 368.084 300.110,368.353 300.380,368.992 298.837 C 369.263 298.184,369.394 297.559,369.283 297.448 C 369.172 297.338,368.887 297.808,368.648 298.493 M253.860 300.484 C 254.810 301.497,255.639 302.326,255.701 302.326 C 255.992 302.326,255.684 301.978,253.973 300.371 L 252.132 298.643 253.860 300.484 M274.128 312.670 C 274.501 312.768,275.111 312.768,275.484 312.670 C 275.858 312.573,275.552 312.493,274.806 312.493 C 274.060 312.493,273.755 312.573,274.128 312.670 M361.434 313.178 C 361.289 313.637,361.257 314.099,361.363 314.206 C 361.470 314.312,361.676 314.024,361.822 313.566 C 361.967 313.107,361.999 312.645,361.892 312.538 C 361.786 312.432,361.580 312.720,361.434 313.178 M359.935 315.988 L 359.238 317.248 360.037 316.279 C 360.745 315.420,361.060 314.729,360.742 314.729 C 360.682 314.729,360.318 315.296,359.935 315.988 M39.549 315.698 C 39.551 315.911,39.909 316.521,40.345 317.054 C 40.871 317.698,41.003 317.763,40.737 317.248 C 40.083 315.984,39.547 315.283,39.549 315.698 M41.654 319.355 C 41.978 319.981,42.419 320.602,42.634 320.735 C 42.849 320.868,42.658 320.356,42.210 319.597 C 41.229 317.933,40.829 317.759,41.654 319.355 M357.342 320.058 C 356.436 321.865,356.464 321.947,357.514 320.564 C 358.631 319.093,358.675 318.992,358.202 318.992 C 358.023 318.992,357.636 319.472,357.342 320.058 M348.945 331.880 C 348.187 332.859,347.929 333.461,348.388 333.178 C 348.847 332.894,349.765 331.395,349.480 331.395 C 349.392 331.395,349.151 331.613,348.945 331.880 M339.705 342.273 C 339.079 342.926,338.829 343.355,339.148 343.225 C 339.669 343.015,341.322 341.085,340.982 341.085 C 340.905 341.085,340.331 341.620,339.705 342.273 M60.853 343.477 C 61.823 344.424,62.316 344.598,61.839 343.826 C 61.699 343.600,61.202 343.216,60.734 342.973 C 59.964 342.574,59.975 342.621,60.853 343.477 M90.698 365.450 C 90.698 365.624,91.134 365.966,91.667 366.209 C 92.200 366.451,92.636 366.507,92.636 366.333 C 92.636 366.159,92.200 365.817,91.667 365.574 C 91.134 365.332,90.698 365.276,90.698 365.450 M113.566 374.612 C 113.566 374.932,113.740 375.194,113.953 375.194 C 114.167 375.194,114.341 374.932,114.341 374.612 C 114.341 374.293,114.167 374.031,113.953 374.031 C 113.740 374.031,113.566 374.293,113.566 374.612 M118.217 375.775 C 118.217 376.095,118.391 376.357,118.605 376.357 C 118.818 376.357,118.992 376.095,118.992 375.775 C 118.992 375.455,118.818 375.194,118.605 375.194 C 118.391 375.194,118.217 375.455,118.217 375.775 M277.132 376.550 C 277.132 376.906,277.319 377.134,277.548 377.057 C 277.778 376.981,277.965 376.753,277.965 376.550 C 277.965 376.348,277.778 376.120,277.548 376.043 C 277.319 375.967,277.132 376.195,277.132 376.550 M272.481 377.326 C 272.481 377.645,272.655 377.907,272.868 377.907 C 273.081 377.907,273.256 377.645,273.256 377.326 C 273.256 377.006,273.081 376.744,272.868 376.744 C 272.655 376.744,272.481 377.006,272.481 377.326 M129.339 377.380 C 128.980 377.738,129.412 378.295,130.049 378.295 C 130.376 378.295,130.506 378.061,130.373 377.713 C 130.136 377.097,129.747 376.971,129.339 377.380 M269.623 377.725 C 269.453 378.169,269.572 378.314,270.032 378.226 C 270.720 378.093,270.853 377.429,270.232 377.222 C 270.029 377.154,269.755 377.381,269.623 377.725 M133.721 378.125 C 133.721 378.431,134.041 378.682,134.432 378.682 C 135.359 378.682,135.359 377.691,134.432 377.621 C 134.041 377.592,133.721 377.818,133.721 378.125 M264.976 378.101 C 264.824 378.496,264.997 378.682,265.516 378.682 C 265.936 378.682,266.279 378.497,266.279 378.272 C 266.279 378.046,266.480 377.986,266.727 378.138 C 267.004 378.309,267.069 378.244,266.897 377.967 C 266.502 377.326,265.240 377.414,264.976 378.101 M141.085 378.295 C 141.085 378.551,160.982 378.682,200.000 378.682 C 239.018 378.682,258.915 378.551,258.915 378.295 C 258.915 378.038,239.018 377.907,200.000 377.907 C 160.982 377.907,141.085 378.038,141.085 378.295  M -25 0 L -5 0 L -5 20 L -25 20 Z M 405 0 L 425 0 L 425 20 L 405 20 Z" stroke="none" fill="#f4b686" fill-rule="evenodd" transform="translate(30,460)"></path><path id="path4" d="M137.597 7.921 C 137.597 8.358,137.985 8.527,138.986 8.527 C 140.737 8.527,140.604 7.612,138.827 7.437 C 137.918 7.347,137.597 7.473,137.597 7.921 M259.550 7.946 C 259.375 8.402,259.657 8.527,260.865 8.527 C 261.974 8.527,262.403 8.365,262.403 7.946 C 262.403 7.543,261.999 7.364,261.088 7.364 C 260.277 7.364,259.687 7.587,259.550 7.946 M132.558 8.333 C 132.558 8.653,132.714 8.915,132.904 8.915 C 133.095 8.915,133.351 8.653,133.473 8.333 C 133.609 7.979,133.474 7.752,133.127 7.752 C 132.814 7.752,132.558 8.014,132.558 8.333 M266.408 8.333 C 266.408 8.653,266.641 8.915,266.925 8.915 C 267.209 8.915,267.442 8.653,267.442 8.333 C 267.442 8.014,267.209 7.752,266.925 7.752 C 266.641 7.752,266.408 8.014,266.408 8.333 M99.228 16.856 C 98.965 17.174,98.568 17.321,98.346 17.184 C 98.106 17.035,98.059 17.123,98.230 17.401 C 98.433 17.728,98.663 17.747,99.004 17.464 C 99.271 17.242,99.605 17.176,99.745 17.316 C 99.885 17.456,100.000 17.280,100.000 16.925 C 100.000 16.129,99.844 16.115,99.228 16.856 M87.734 22.273 C 87.288 22.585,86.813 22.731,86.679 22.596 C 86.544 22.462,86.434 22.555,86.434 22.804 C 86.434 23.467,87.002 23.357,88.038 22.494 C 89.111 21.600,88.907 21.452,87.734 22.273 M136.434 23.256 C 134.497 23.664,136.484 23.680,138.760 23.276 C 140.333 22.996,140.371 22.965,139.147 22.968 C 138.401 22.969,137.180 23.099,136.434 23.256 M261.240 23.276 C 263.579 23.692,265.413 23.656,263.372 23.234 C 262.519 23.057,261.298 22.925,260.659 22.939 C 259.787 22.959,259.932 23.043,261.240 23.276 M131.395 23.643 C 130.054 23.926,130.052 23.929,131.202 23.974 C 131.841 23.999,132.626 23.850,132.946 23.643 C 133.591 23.226,133.377 23.226,131.395 23.643 M267.926 23.911 C 268.299 24.008,268.910 24.008,269.283 23.911 C 269.656 23.813,269.351 23.733,268.605 23.733 C 267.859 23.733,267.553 23.813,267.926 23.911 M321.348 28.153 C 321.332 28.395,321.748 28.875,322.273 29.219 C 323.472 30.004,323.880 30.026,323.117 29.264 C 322.798 28.944,322.364 28.682,322.153 28.682 C 321.942 28.682,321.682 28.464,321.575 28.198 C 321.449 27.888,321.368 27.872,321.348 28.153 M303.488 32.736 C 303.488 32.843,304.186 33.286,305.039 33.721 C 305.891 34.156,306.589 34.425,306.589 34.318 C 306.589 34.211,305.891 33.768,305.039 33.333 C 304.186 32.898,303.488 32.630,303.488 32.736 M62.057 41.883 C 61.548 42.308,61.213 42.737,61.313 42.838 C 61.413 42.938,61.905 42.585,62.405 42.053 C 63.492 40.895,63.336 40.819,62.057 41.883 M58.317 45.658 C 56.081 47.768,54.766 49.225,55.098 49.225 C 55.183 49.225,56.551 47.917,58.140 46.318 C 61.546 42.889,61.646 42.516,58.317 45.658 M344.165 48.984 C 344.900 49.756,345.562 50.388,345.637 50.388 C 345.966 50.388,344.304 48.478,343.605 48.052 C 343.178 47.793,343.431 48.212,344.165 48.984 M53.101 51.357 C 52.441 52.316,51.959 53.101,52.031 53.101 C 52.103 53.101,52.818 52.316,53.619 51.357 C 54.421 50.397,54.903 49.612,54.689 49.612 C 54.476 49.612,53.761 50.397,53.101 51.357 M343.605 61.240 C 344.870 62.519,345.993 63.566,346.100 63.566 C 346.206 63.566,345.258 62.519,343.992 61.240 C 342.727 59.961,341.604 58.915,341.497 58.915 C 341.391 58.915,342.339 59.961,343.605 61.240 M55.786 61.143 C 53.671 63.377,52.533 64.729,52.768 64.729 C 52.864 64.729,54.036 63.508,55.372 62.016 C 58.140 58.924,58.393 58.390,55.786 61.143 M176.357 100.194 C 177.080 100.940,177.759 101.550,177.865 101.550 C 177.972 101.550,177.467 100.940,176.744 100.194 C 176.021 99.448,175.342 98.837,175.236 98.837 C 175.129 98.837,175.633 99.448,176.357 100.194 M374.473 113.953 C 374.473 114.273,374.623 114.884,374.806 115.310 C 375.016 115.799,375.139 115.870,375.139 115.504 C 375.139 115.184,374.989 114.574,374.806 114.147 C 374.596 113.659,374.473 113.587,374.473 113.953 M24.484 115.872 C 24.257 116.522,24.154 117.054,24.255 117.054 C 24.516 117.054,25.248 115.041,25.056 114.849 C 24.968 114.761,24.710 115.221,24.484 115.872 M21.235 121.318 C 21.141 121.957,21.189 122.481,21.341 122.481 C 21.493 122.481,21.694 121.957,21.788 121.318 C 21.882 120.678,21.834 120.155,21.682 120.155 C 21.530 120.155,21.329 120.678,21.235 121.318 M378.322 121.973 C 378.307 122.440,378.469 122.930,378.682 123.062 C 379.141 123.345,379.141 122.966,378.682 121.899 C 378.361 121.152,378.348 121.155,378.322 121.973 M379.759 138.372 C 379.854 138.692,380.021 139.259,380.128 139.632 C 380.432 140.690,380.810 140.428,380.856 139.126 C 380.886 138.306,380.745 138.003,380.397 138.136 C 380.121 138.242,379.825 138.208,379.740 138.060 C 379.654 137.912,379.663 138.052,379.759 138.372 M18.998 144.864 C 19.003 145.695,19.087 145.802,19.380 145.349 C 19.870 144.590,19.870 143.798,19.380 143.798 C 19.167 143.798,18.995 144.278,18.998 144.864 M202.422 146.014 C 203.009 146.103,203.968 146.103,204.554 146.014 C 205.141 145.925,204.661 145.853,203.488 145.853 C 202.316 145.853,201.836 145.925,202.422 146.014 M380.808 193.217 C 380.808 218.372,380.854 228.606,380.911 215.958 C 380.968 203.311,380.968 182.730,380.911 170.222 C 380.854 157.714,380.808 168.062,380.808 193.217 M280.383 193.992 C 280.384 196.764,280.446 197.846,280.520 196.399 C 280.595 194.951,280.595 192.683,280.519 191.360 C 280.444 190.036,280.382 191.221,280.383 193.992 M318.716 193.992 C 318.718 195.058,318.794 195.448,318.883 194.859 C 318.972 194.270,318.969 193.398,318.877 192.921 C 318.785 192.444,318.713 192.926,318.716 193.992 M119.532 199.225 C 119.532 202.103,119.593 203.280,119.667 201.841 C 119.742 200.402,119.742 198.047,119.667 196.609 C 119.593 195.170,119.532 196.347,119.532 199.225 M81.119 199.031 C 81.122 200.097,81.197 200.487,81.286 199.898 C 81.375 199.309,81.373 198.437,81.281 197.960 C 81.189 197.483,81.116 197.965,81.119 199.031 M19.090 242.054 C 19.094 242.907,19.174 243.210,19.266 242.728 C 19.359 242.246,19.356 241.548,19.259 241.178 C 19.162 240.807,19.086 241.202,19.090 242.054 M268.217 242.369 C 268.217 242.436,268.784 243.003,269.477 243.629 L 270.736 244.767 269.598 243.508 C 268.537 242.334,268.217 242.070,268.217 242.369 M229.965 261.434 C 229.967 262.713,230.040 263.190,230.126 262.493 C 230.212 261.796,230.210 260.750,230.122 260.167 C 230.033 259.585,229.963 260.155,229.965 261.434 M374.694 280.233 C 374.582 280.659,374.629 281.008,374.797 281.008 C 374.966 281.008,375.195 280.659,375.306 280.233 C 375.418 279.806,375.371 279.457,375.203 279.457 C 375.034 279.457,374.805 279.806,374.694 280.233 M24.835 280.342 C 24.819 280.509,25.053 281.236,25.355 281.958 C 25.656 282.679,25.802 283.372,25.678 283.496 C 25.554 283.619,25.656 283.721,25.904 283.721 C 26.153 283.721,26.344 283.590,26.328 283.430 C 26.280 282.942,24.866 280.018,24.835 280.342 M171.487 293.508 L 170.349 294.767 171.609 293.629 C 172.783 292.568,173.046 292.248,172.747 292.248 C 172.680 292.248,172.113 292.815,171.487 293.508 M291.563 294.574 C 291.563 295.320,291.643 295.625,291.740 295.252 C 291.838 294.879,291.838 294.268,291.740 293.895 C 291.643 293.522,291.563 293.828,291.563 294.574 M247.287 293.920 C 247.287 293.986,247.854 294.553,248.547 295.179 L 249.806 296.318 248.668 295.058 C 247.607 293.884,247.287 293.620,247.287 293.920 M31.644 297.662 C 32.018 298.295,32.383 298.754,32.455 298.682 C 32.690 298.447,31.670 296.512,31.311 296.512 C 31.120 296.512,31.270 297.030,31.644 297.662 M352.175 327.314 C 351.684 328.063,351.666 328.226,352.092 328.062 C 352.392 327.947,352.725 327.517,352.832 327.105 C 353.093 326.110,352.930 326.162,352.175 327.314 M51.957 328.968 C 52.449 329.658,52.942 330.133,53.053 330.022 C 53.163 329.912,52.760 329.347,52.157 328.767 L 51.061 327.713 51.957 328.968 M346.456 330.329 C 345.830 331.223,345.772 331.430,346.257 331.040 C 346.948 330.485,347.856 329.070,347.521 329.070 C 347.421 329.070,346.942 329.637,346.456 330.329 M51.163 332.486 C 51.163 332.659,51.715 333.313,52.390 333.939 L 53.617 335.078 52.538 333.624 C 51.443 332.150,51.163 331.918,51.163 332.486 M346.898 334.205 C 346.327 334.985,346.234 335.256,346.653 334.916 C 347.288 334.399,348.249 332.946,347.955 332.946 C 347.881 332.946,347.405 333.513,346.898 334.205 M341.840 335.174 L 340.504 336.628 341.957 335.292 C 343.310 334.049,343.589 333.721,343.293 333.721 C 343.228 333.721,342.574 334.375,341.840 335.174 M58.522 336.038 C 58.748 336.459,59.321 337.005,59.796 337.251 C 60.515 337.623,60.470 337.496,59.521 336.484 C 58.202 335.079,57.949 334.966,58.522 336.038 M341.648 339.992 L 340.116 341.611 341.758 340.351 C 343.487 339.024,344.065 338.372,343.512 338.372 C 343.330 338.372,342.491 339.101,341.648 339.992 M62.043 344.066 C 62.028 344.533,62.190 345.023,62.403 345.155 C 62.862 345.438,62.862 345.059,62.403 343.992 C 62.082 343.245,62.069 343.248,62.043 344.066 M80.233 353.066 C 80.766 353.502,81.376 353.860,81.589 353.861 C 82.004 353.864,81.303 353.328,80.039 352.674 C 79.524 352.408,79.589 352.540,80.233 353.066 M315.675 355.220 C 315.261 355.533,315.097 355.789,315.310 355.789 C 315.523 355.789,316.036 355.533,316.450 355.220 C 316.864 354.907,317.028 354.651,316.815 354.651 C 316.602 354.651,316.089 354.907,315.675 355.220 M322.147 356.990 C 321.596 357.448,321.443 357.752,321.763 357.752 C 322.055 357.752,322.512 357.403,322.778 356.977 C 323.373 356.024,323.304 356.026,322.147 356.990 M81.618 360.021 C 82.029 360.417,82.429 360.571,82.508 360.364 C 82.657 359.975,81.863 359.319,81.231 359.308 C 81.033 359.305,81.208 359.626,81.618 360.021 M314.951 361.587 C 314.283 361.849,314.272 361.906,314.854 362.129 C 315.211 362.267,315.504 362.200,315.504 361.980 C 315.504 361.761,315.678 361.690,315.891 361.822 C 316.105 361.953,316.279 361.877,316.279 361.651 C 316.279 361.184,316.013 361.171,314.951 361.587 M97.845 362.188 C 98.259 362.519,98.870 362.777,99.202 362.760 C 99.724 362.734,99.727 362.700,99.225 362.514 C 98.905 362.395,98.295 362.138,97.868 361.942 C 97.105 361.591,97.105 361.595,97.845 362.188 M308.581 365.150 C 308.078 365.558,307.816 365.886,308.000 365.879 C 308.473 365.862,309.861 364.770,309.662 364.572 C 309.571 364.482,309.084 364.742,308.581 365.150 M305.039 367.054 C 304.731 367.244,304.608 367.528,304.766 367.686 C 304.923 367.843,305.255 367.768,305.504 367.519 C 306.090 366.934,305.763 366.607,305.039 367.054 M97.843 368.646 C 97.660 368.941,97.718 369.011,98.002 368.835 C 98.248 368.683,98.450 368.744,98.450 368.969 C 98.450 369.195,98.711 369.380,99.031 369.380 C 99.351 369.380,99.612 369.176,99.612 368.928 C 99.612 368.679,99.498 368.590,99.357 368.730 C 99.217 368.871,98.884 368.804,98.617 368.582 C 98.276 368.300,98.045 368.318,97.843 368.646 M301.569 368.585 C 301.259 368.781,300.823 368.837,300.600 368.711 C 300.377 368.584,300.330 368.630,300.496 368.812 C 300.999 369.365,301.872 369.337,302.093 368.760 C 302.337 368.124,302.311 368.116,301.569 368.585 M169.089 371.221 C 186.090 371.277,213.910 371.277,230.911 371.221 C 247.912 371.165,234.002 371.119,200.000 371.119 C 165.998 371.119,152.088 371.165,169.089 371.221 M294.376 371.324 C 294.242 371.541,293.990 371.630,293.816 371.522 C 293.641 371.414,293.269 371.630,292.989 372.000 C 292.567 372.559,292.567 372.597,292.992 372.220 C 293.274 371.970,293.723 371.850,293.989 371.952 C 294.256 372.054,294.578 371.866,294.705 371.534 C 294.965 370.857,294.750 370.719,294.376 371.324 M131.008 377.713 C 131.008 378.033,131.264 378.295,131.577 378.295 C 131.924 378.295,132.059 378.067,131.923 377.713 C 131.800 377.393,131.544 377.132,131.354 377.132 C 131.164 377.132,131.008 377.393,131.008 377.713 M268.077 377.713 C 267.941 378.067,268.076 378.295,268.423 378.295 C 268.736 378.295,268.992 378.033,268.992 377.713 C 268.992 377.393,268.836 377.132,268.646 377.132 C 268.456 377.132,268.200 377.393,268.077 377.713 M135.401 378.112 C 135.401 378.782,136.111 378.682,136.345 377.980 C 136.430 377.727,136.252 377.519,135.950 377.519 C 135.648 377.519,135.401 377.786,135.401 378.112 M263.426 378.101 C 263.548 378.421,263.805 378.682,263.995 378.682 C 264.185 378.682,264.341 378.421,264.341 378.101 C 264.341 377.781,264.085 377.519,263.772 377.519 C 263.425 377.519,263.290 377.747,263.426 378.101  M -25 0 L -5 0 L -5 20 L -25 20 Z M 405 0 L 425 0 L 425 20 L 405 20 Z" stroke="none" fill="#f3914f" fill-rule="evenodd" transform="translate(490,460)"></path></g></svg>